<?xml version="1.0" standalone="no"?>
<!DOCTYPE svg PUBLIC "-//W3C//DTD SVG 20010904//EN"
 "http://www.w3.org/TR/2001/REC-SVG-20010904/DTD/svg10.dtd">
<svg version="1.0" xmlns="http://www.w3.org/2000/svg"
 width="1024.000000pt" height="536.000000pt" viewBox="0 0 1024.000000 536.000000"
 preserveAspectRatio="xMidYMid meet">

<g transform="translate(0.000000,536.000000) scale(0.100000,-0.100000)"
fill="#000000" stroke="none">
<path d="M310 5351 l-305 -6 0 -2670 0 -2670 5118 -3 5117 -2 0 2675 0 2675
-4222 0 c-2323 0 -4488 2 -4813 4 -324 1 -727 0 -895 -3z m7460 -560 c13 -25
13 -44 0 -36 -5 3 -7 0 -4 -9 9 -23 -34 -31 -57 -10 -23 21 -24 32 -2 56 21
24 50 23 63 -1z m174 3 c19 -18 20 -28 6 -55 -21 -39 -90 -16 -90 30 0 16 30
41 50 41 10 0 26 -7 34 -16z m170 0 c23 -22 20 -41 -8 -59 -45 -30 -88 21 -50
59 8 9 22 16 29 16 7 0 21 -7 29 -16z m180 0 c20 -20 20 -33 -1 -56 -23 -26
-61 -23 -74 6 -23 50 36 90 75 50z m174 4 c7 -7 12 -21 12 -33 0 -12 -5 -26
-12 -33 -7 -7 -21 -12 -33 -12 -12 0 -26 5 -33 12 -7 7 -12 21 -12 33 0 12 5
26 12 33 7 7 21 12 33 12 12 0 26 -5 33 -12z m-5678 -833 l0 -105 -58 0 c-78
0 -170 -25 -212 -58 -19 -15 -48 -55 -65 -87 -27 -54 -30 -71 -34 -176 -2 -86
3 -153 20 -260 17 -105 23 -187 23 -304 0 -145 -2 -166 -23 -220 -31 -79 -117
-166 -190 -191 -28 -11 -51 -21 -51 -25 0 -3 24 -15 54 -28 107 -44 168 -121
203 -254 20 -78 13 -271 -16 -467 -39 -253 -24 -408 46 -490 52 -61 102 -82
208 -89 l90 -6 3 -102 3 -103 -93 0 c-235 1 -404 85 -484 242 -64 127 -72 287
-29 598 15 107 28 240 28 295 1 88 -2 107 -25 157 -41 88 -108 129 -235 144
l-53 7 0 92 0 91 75 12 c42 7 93 21 114 31 51 26 97 81 113 133 19 66 13 223
-17 437 -29 213 -35 395 -14 476 18 74 55 141 107 197 98 105 234 152 450 157
l62 1 0 -105z m4898 80 c173 -40 293 -156 339 -326 25 -95 21 -283 -11 -502
-30 -205 -34 -360 -10 -429 8 -25 31 -62 51 -82 38 -37 124 -76 171 -76 70 0
72 -3 72 -106 l0 -94 -38 0 c-102 0 -201 -50 -243 -123 -37 -66 -39 -226 -3
-477 45 -327 37 -472 -34 -603 -76 -141 -255 -227 -474 -227 l-99 0 3 103 3
102 91 6 c146 9 211 51 253 164 29 77 29 245 -1 426 -14 93 -21 181 -22 289
-1 172 12 222 74 307 32 44 107 97 153 108 45 12 40 22 -25 52 -196 92 -245
287 -178 703 24 152 26 335 5 407 -36 121 -119 179 -268 190 l-87 6 0 97 c0
53 3 100 8 105 10 11 194 -3 270 -20z m-4104 -377 c17 -50 -42 -89 -78 -52
-34 33 -6 88 43 82 18 -2 29 -11 35 -30z m164 20 c7 -7 12 -24 12 -40 0 -50
-66 -62 -91 -17 -23 43 44 92 79 57z m1097 -789 c28 -11 63 -30 79 -43 l29
-24 -43 -54 c-24 -29 -45 -55 -47 -57 -2 -3 -24 5 -48 17 -45 22 -128 30 -151
14 -22 -15 -24 -42 -4 -59 11 -9 63 -34 117 -56 108 -42 146 -72 174 -132 46
-100 4 -211 -103 -271 -49 -27 -61 -29 -153 -29 -92 0 -105 2 -165 32 -112 55
-111 53 -55 120 27 32 50 60 52 62 2 2 28 -8 59 -24 73 -37 141 -44 173 -18
40 33 22 56 -77 98 -131 56 -168 80 -197 130 -20 33 -26 58 -26 99 0 174 189
270 386 195z m682 -10 c114 -55 173 -165 173 -324 0 -160 -61 -274 -180 -336
-39 -21 -59 -24 -145 -24 -111 0 -157 16 -223 79 -114 106 -137 349 -48 501
78 132 266 179 423 104z m-1209 -257 l-3 -279 -30 -49 c-54 -89 -166 -124
-290 -93 -45 11 -117 65 -136 101 -12 23 -10 26 73 84 l37 26 31 -31 c51 -51
111 -38 130 27 5 20 10 138 10 265 l0 227 91 0 90 0 -3 -278z m1799 71 c55
-115 104 -217 107 -227 11 -33 14 -13 5 44 -4 30 -8 130 -8 223 l-1 167 85 0
85 0 0 -350 0 -350 -93 0 -93 0 -101 208 c-55 114 -105 218 -112 232 -11 25
-11 24 -6 -5 3 -16 8 -121 12 -233 l6 -203 -89 3 -89 3 -3 348 -2 347 98 0 98
0 101 -207z m-4924 -624 c20 -27 10 -58 -20 -65 -39 -10 -70 45 -41 74 18 18
45 14 61 -9z m175 8 c22 -14 14 -56 -13 -69 -22 -10 -29 -9 -45 8 -23 22 -17
69 7 60 8 -3 11 -1 8 4 -7 11 23 9 43 -3z m177 -9 c9 -14 11 -24 5 -26 -6 -2
-8 -7 -5 -12 3 -4 -2 -13 -10 -20 -23 -19 -65 3 -65 33 0 48 47 63 75 25z
m169 3 c20 -22 15 -56 -9 -65 -9 -3 -26 -1 -40 4 -21 8 -25 15 -21 37 9 44 41
56 70 24z m174 7 c19 -19 14 -56 -9 -68 -25 -14 -44 -8 -58 18 -21 39 36 81
67 50z m6546 -550 c15 -24 -4 -53 -35 -54 -29 -2 -49 12 -49 35 0 41 61 54 84
19z m166 6 c16 -19 5 -60 -19 -67 -22 -5 -34 1 -49 28 -20 37 41 73 68 39z
m-4637 -1062 c22 -24 11 -61 -19 -68 -49 -13 -77 52 -31 74 30 15 32 14 50 -6z
m168 8 c38 -21 18 -80 -28 -80 -53 0 -49 76 5 89 2 1 12 -4 23 -9z m187 -2
c18 -18 14 -53 -8 -73 -17 -15 -24 -16 -45 -7 -32 15 -41 37 -27 68 13 27 58
34 80 12z m177 -12 c13 -19 14 -29 6 -45 -25 -45 -91 -33 -91 17 0 54 56 72
85 28z m179 -8 c8 -22 6 -32 -9 -48 -22 -24 -42 -25 -67 -3 -38 34 -15 86 37
81 22 -2 32 -10 39 -30z"/>
<path d="M8064 4770 c0 -13 4 -16 10 -10 7 7 7 13 0 20 -6 6 -10 3 -10 -10z"/>
<path d="M8079 4743 c-13 -16 -12 -17 4 -4 16 13 21 21 13 21 -2 0 -10 -8 -17
-17z"/>
<path d="M5306 2739 c-47 -37 -60 -75 -61 -174 0 -75 4 -97 23 -132 51 -97
163 -97 214 0 29 55 32 204 5 254 -26 48 -63 73 -112 73 -28 0 -51 -7 -69 -21z"/>
<path d="M1344 2058 c0 -10 1 -18 3 -18 1 0 7 8 12 18 7 13 6 19 -2 19 -7 0
-13 -9 -13 -19z"/>
<path d="M1310 2040 c0 -5 5 -10 11 -10 5 0 7 5 4 10 -3 6 -8 10 -11 10 -2 0
-4 -4 -4 -10z"/>
<path d="M1490 2069 c-7 -11 -10 -23 -7 -25 2 -2 9 7 15 21 14 30 7 33 -8 4z"/>
<path d="M1515 2070 c-3 -5 1 -10 10 -10 9 0 13 5 10 10 -3 6 -8 10 -10 10 -2
0 -7 -4 -10 -10z"/>
<path d="M1500 2040 c0 -6 7 -10 15 -10 8 0 15 2 15 4 0 2 -7 6 -15 10 -8 3
-15 1 -15 -4z"/>
<path d="M1665 2073 c-7 -21 -7 -23 10 -23 8 0 15 -4 15 -10 0 -5 4 -10 8 -10
7 0 8 15 3 51 -2 12 -30 5 -36 -8z m32 -9 c-3 -3 -12 -4 -19 -1 -8 3 -5 6 6 6
11 1 17 -2 13 -5z"/>
<path d="M1857 2044 c6 -15 23 -19 23 -5 0 5 -7 11 -14 14 -10 4 -13 1 -9 -9z"/>
<path d="M8365 1529 c-4 -6 -4 -13 -1 -16 3 -4 6 -1 6 5 0 7 5 12 11 12 6 0 9
-7 6 -14 -4 -11 -1 -13 10 -9 12 5 14 3 8 -7 -5 -9 -4 -11 3 -6 15 9 15 12 -4
30 -18 19 -30 20 -39 5z"/>
<path d="M8557 1534 c4 -12 3 -15 -5 -10 -7 4 -12 2 -12 -3 0 -6 5 -11 11 -11
5 0 7 -6 3 -12 -4 -7 -3 -10 1 -5 13 11 16 45 5 52 -6 4 -7 -1 -3 -11z"/>
<path d="M8580 1510 c0 -5 5 -10 11 -10 5 0 7 5 4 10 -3 6 -8 10 -11 10 -2 0
-4 -4 -4 -10z"/>
<path d="M3920 480 c-9 -6 -10 -10 -3 -10 6 0 15 5 18 10 8 12 4 12 -15 0z"/>
<path d="M3940 460 c-13 -8 -12 -10 3 -10 9 0 17 5 17 10 0 12 -1 12 -20 0z"/>
<path d="M4095 460 c-16 -7 -17 -9 -3 -9 9 -1 20 4 23 9 7 11 7 11 -20 0z"/>
</g>
</svg>
